<svg xmlns="http://www.w3.org/2000/svg" xmlns:xlink="http://www.w3.org/1999/xlink" version="1.1" x="0px" y="0px" viewBox="0 0 100 125" enable-background="new 0 0 100 100" xml:space="preserve"><g><path d="M57,46h6c1.65,0,3-1.35,3-3v-6c0-1.65-1.35-3-3-3h-6c-1.65,0-3,1.35-3,3v6C54,44.65,55.35,46,57,46z M56,37   c0-0.542,0.458-1,1-1h6c0.542,0,1,0.458,1,1v6c0,0.542-0.458,1-1,1h-6c-0.542,0-1-0.458-1-1V37z"/><path d="M71.5,46h6c1.65,0,3-1.35,3-3v-6c0-1.65-1.35-3-3-3h-6c-1.65,0-3,1.35-3,3v6C68.5,44.65,69.85,46,71.5,46z M70.5,37   c0-0.542,0.458-1,1-1h6c0.542,0,1,0.458,1,1v6c0,0.542-0.458,1-1,1h-6c-0.542,0-1-0.458-1-1V37z"/><path d="M57,31.5h6c1.65,0,3-1.35,3-3v-6c0-1.65-1.35-3-3-3h-6c-1.65,0-3,1.35-3,3v6C54,30.15,55.35,31.5,57,31.5z M56,22.5   c0-0.542,0.458-1,1-1h6c0.542,0,1,0.458,1,1v6c0,0.542-0.458,1-1,1h-6c-0.542,0-1-0.458-1-1V22.5z"/><path d="M71.5,31.5h6c1.65,0,3-1.35,3-3v-6c0-1.65-1.35-3-3-3h-6c-1.65,0-3,1.35-3,3v6C68.5,30.15,69.85,31.5,71.5,31.5z    M70.5,22.5c0-0.542,0.458-1,1-1h6c0.542,0,1,0.458,1,1v6c0,0.542-0.458,1-1,1h-6c-0.542,0-1-0.458-1-1V22.5z"/><path d="M86,46h6c0.317,0,0.618-0.063,0.906-0.156c-0.046-0.724-0.111-1.441-0.194-2.154C92.529,43.879,92.276,44,92,44h-6   c-0.542,0-1-0.458-1-1v-6c0-0.542,0.458-1,1-1h5.072c-0.213-0.674-0.445-1.341-0.691-2H86c-1.65,0-3,1.35-3,3v6   C83,44.65,84.35,46,86,46z"/><path d="M57,17h6c1.65,0,3-1.35,3-3V9.619c-0.659-0.247-1.325-0.478-2-0.691V14c0,0.542-0.458,1-1,1h-6c-0.542,0-1-0.458-1-1V8   c0-0.277,0.121-0.529,0.311-0.712c-0.713-0.083-1.432-0.147-2.154-0.193C54.063,7.382,54,7.683,54,8v6C54,15.65,55.35,17,57,17z"/><path d="M71.5,17h6c0.287,0,0.56-0.054,0.823-0.13c-0.767-0.651-1.556-1.275-2.368-1.87H71.5c-0.542,0-1-0.458-1-1v-2.376   c-0.657-0.34-1.323-0.662-2-0.967V14C68.5,15.65,69.85,17,71.5,17z"/><path d="M86,31.5h3.344c-0.306-0.677-0.628-1.343-0.968-2H86c-0.542,0-1-0.458-1-1v-4.456c-0.595-0.813-1.219-1.601-1.87-2.367   C83.054,21.94,83,22.213,83,22.5v6C83,30.15,84.35,31.5,86,31.5z"/><path d="M37,46h6c1.65,0,3-1.35,3-3v-6c0-1.65-1.35-3-3-3h-6c-1.65,0-3,1.35-3,3v6C34,44.65,35.35,46,37,46z M36,37   c0-0.542,0.458-1,1-1h6c0.542,0,1,0.458,1,1v6c0,0.542-0.458,1-1,1h-6c-0.542,0-1-0.458-1-1V37z"/><path d="M22.5,46h6c1.65,0,3-1.35,3-3v-6c0-1.65-1.35-3-3-3h-6c-1.65,0-3,1.35-3,3v6C19.5,44.65,20.85,46,22.5,46z M21.5,37   c0-0.542,0.458-1,1-1h6c0.542,0,1,0.458,1,1v6c0,0.542-0.458,1-1,1h-6c-0.542,0-1-0.458-1-1V37z"/><path d="M37,31.5h6c1.65,0,3-1.35,3-3v-6c0-1.65-1.35-3-3-3h-6c-1.65,0-3,1.35-3,3v6C34,30.15,35.35,31.5,37,31.5z M36,22.5   c0-0.542,0.458-1,1-1h6c0.542,0,1,0.458,1,1v6c0,0.542-0.458,1-1,1h-6c-0.542,0-1-0.458-1-1V22.5z"/><path d="M22.5,31.5h6c1.65,0,3-1.35,3-3v-6c0-1.65-1.35-3-3-3h-6c-1.65,0-3,1.35-3,3v6C19.5,30.15,20.85,31.5,22.5,31.5z    M21.5,22.5c0-0.542,0.458-1,1-1h6c0.542,0,1,0.458,1,1v6c0,0.542-0.458,1-1,1h-6c-0.542,0-1-0.458-1-1V22.5z"/><path d="M8,46h6c1.65,0,3-1.35,3-3v-6c0-1.65-1.35-3-3-3H9.619c-0.246,0.659-0.479,1.326-0.691,2H14c0.542,0,1,0.458,1,1v6   c0,0.542-0.458,1-1,1H8c-0.276,0-0.529-0.121-0.712-0.31c-0.083,0.713-0.148,1.431-0.194,2.154C7.382,45.937,7.683,46,8,46z"/><path d="M37,17h6c1.65,0,3-1.35,3-3V8c0-0.317-0.063-0.618-0.156-0.906c-0.723,0.046-1.441,0.111-2.154,0.193   C43.879,7.471,44,7.723,44,8v6c0,0.542-0.458,1-1,1h-6c-0.542,0-1-0.458-1-1V8.928c-0.675,0.213-1.341,0.445-2,0.691V14   C34,15.65,35.35,17,37,17z"/><path d="M28.5,17c1.65,0,3-1.35,3-3v-3.343c-0.677,0.305-1.343,0.627-2,0.967V14c0,0.542-0.458,1-1,1h-4.455   c-0.813,0.595-1.602,1.219-2.368,1.87C21.94,16.946,22.213,17,22.5,17H28.5z"/><path d="M17,28.5v-6c0-0.287-0.054-0.56-0.13-0.823c-0.651,0.766-1.275,1.555-1.87,2.367V28.5c0,0.542-0.458,1-1,1h-2.376   c-0.34,0.657-0.662,1.323-0.968,2H14C15.65,31.5,17,30.15,17,28.5z"/><path d="M63,54h-6c-1.65,0-3,1.35-3,3v6c0,1.65,1.35,3,3,3h6c1.65,0,3-1.35,3-3v-6C66,55.35,64.65,54,63,54z M64,63   c0,0.542-0.458,1-1,1h-6c-0.542,0-1-0.458-1-1v-6c0-0.542,0.458-1,1-1h6c0.542,0,1,0.458,1,1V63z"/><path d="M77.5,54h-6c-1.65,0-3,1.35-3,3v6c0,1.65,1.35,3,3,3h6c1.65,0,3-1.35,3-3v-6C80.5,55.35,79.15,54,77.5,54z M78.5,63   c0,0.542-0.458,1-1,1h-6c-0.542,0-1-0.458-1-1v-6c0-0.542,0.458-1,1-1h6c0.542,0,1,0.458,1,1V63z"/><path d="M63,68.5h-6c-1.65,0-3,1.35-3,3v6c0,1.65,1.35,3,3,3h6c1.65,0,3-1.35,3-3v-6C66,69.85,64.65,68.5,63,68.5z M64,77.5   c0,0.542-0.458,1-1,1h-6c-0.542,0-1-0.458-1-1v-6c0-0.542,0.458-1,1-1h6c0.542,0,1,0.458,1,1V77.5z"/><path d="M77.5,68.5h-6c-1.65,0-3,1.35-3,3v6c0,1.65,1.35,3,3,3h6c1.65,0,3-1.35,3-3v-6C80.5,69.85,79.15,68.5,77.5,68.5z    M78.5,77.5c0,0.542-0.458,1-1,1h-6c-0.542,0-1-0.458-1-1v-6c0-0.542,0.458-1,1-1h6c0.542,0,1,0.458,1,1V77.5z"/><path d="M92,54h-6c-1.65,0-3,1.35-3,3v6c0,1.65,1.35,3,3,3h4.381c0.246-0.659,0.479-1.326,0.691-2H86c-0.542,0-1-0.458-1-1v-6   c0-0.542,0.458-1,1-1h6c0.276,0,0.529,0.121,0.712,0.311c0.083-0.713,0.148-1.432,0.194-2.154C92.618,54.063,92.317,54,92,54z"/><path d="M63,83h-6c-1.65,0-3,1.35-3,3v6c0,0.317,0.063,0.618,0.156,0.906c0.723-0.047,1.441-0.111,2.154-0.193   C56.121,92.529,56,92.277,56,92v-6c0-0.542,0.458-1,1-1h6c0.542,0,1,0.458,1,1v5.072c0.675-0.213,1.341-0.445,2-0.691V86   C66,84.35,64.65,83,63,83z"/><path d="M71.5,83c-1.65,0-3,1.35-3,3v3.344c0.677-0.306,1.343-0.628,2-0.968V86c0-0.542,0.458-1,1-1h4.455   c0.813-0.595,1.602-1.219,2.368-1.87C78.06,83.054,77.787,83,77.5,83H71.5z"/><path d="M83,71.5v6c0,0.287,0.054,0.56,0.13,0.822c0.651-0.766,1.275-1.555,1.87-2.367V71.5c0-0.542,0.458-1,1-1h2.376   c0.34-0.656,0.662-1.323,0.968-2H86C84.35,68.5,83,69.85,83,71.5z"/><path d="M42.5,54h-6c-1.65,0-3,1.35-3,3v6c0,1.65,1.35,3,3,3h6c1.65,0,3-1.35,3-3v-6C45.5,55.35,44.15,54,42.5,54z M43.5,63   c0,0.542-0.458,1-1,1h-6c-0.542,0-1-0.458-1-1v-6c0-0.542,0.458-1,1-1h6c0.542,0,1,0.458,1,1V63z"/><path d="M28,54h-6c-1.65,0-3,1.35-3,3v6c0,1.65,1.35,3,3,3h6c1.65,0,3-1.35,3-3v-6C31,55.35,29.65,54,28,54z M29,63   c0,0.542-0.458,1-1,1h-6c-0.542,0-1-0.458-1-1v-6c0-0.542,0.458-1,1-1h6c0.542,0,1,0.458,1,1V63z"/><path d="M42.5,68.5h-6c-1.65,0-3,1.35-3,3v6c0,1.65,1.35,3,3,3h6c1.65,0,3-1.35,3-3v-6C45.5,69.85,44.15,68.5,42.5,68.5z    M43.5,77.5c0,0.542-0.458,1-1,1h-6c-0.542,0-1-0.458-1-1v-6c0-0.542,0.458-1,1-1h6c0.542,0,1,0.458,1,1V77.5z"/><path d="M28,68.5h-6c-1.65,0-3,1.35-3,3v6c0,1.65,1.35,3,3,3h6c1.65,0,3-1.35,3-3v-6C31,69.85,29.65,68.5,28,68.5z M29,77.5   c0,0.542-0.458,1-1,1h-6c-0.542,0-1-0.458-1-1v-6c0-0.542,0.458-1,1-1h6c0.542,0,1,0.458,1,1V77.5z"/><path d="M13.5,54h-6c-0.317,0-0.618,0.063-0.906,0.156c0.046,0.723,0.111,1.441,0.194,2.154C6.971,56.121,7.224,56,7.5,56h6   c0.542,0,1,0.458,1,1v6c0,0.542-0.458,1-1,1H8.428c0.213,0.674,0.445,1.341,0.691,2H13.5c1.65,0,3-1.35,3-3v-6   C16.5,55.35,15.15,54,13.5,54z"/><path d="M42.5,83h-6c-1.65,0-3,1.35-3,3v4.381c0.659,0.246,1.325,0.479,2,0.691V86c0-0.542,0.458-1,1-1h6c0.542,0,1,0.458,1,1v6   c0,0.277-0.121,0.529-0.311,0.713c0.713,0.082,1.432,0.146,2.154,0.193C45.437,92.618,45.5,92.317,45.5,92v-6   C45.5,84.35,44.15,83,42.5,83z"/><path d="M28,83h-6c-0.287,0-0.56,0.054-0.823,0.13c0.767,0.651,1.556,1.275,2.368,1.87H28c0.542,0,1,0.458,1,1v2.376   c0.657,0.34,1.323,0.662,2,0.968V86C31,84.35,29.65,83,28,83z"/><path d="M13.5,68.5h-3.344c0.306,0.677,0.628,1.344,0.968,2H13.5c0.542,0,1,0.458,1,1v4.455c0.595,0.813,1.219,1.602,1.87,2.367   c0.076-0.263,0.13-0.535,0.13-0.822v-6C16.5,69.85,15.15,68.5,13.5,68.5z"/><path d="M50,1C22.981,1,1,22.981,1,50s21.981,49,49,49s49-21.981,49-49S77.019,1,50,1z M95.962,48.5H51.5V4.038   C75.672,4.818,95.182,24.328,95.962,48.5z M48.5,4.038V48.5H4.038C4.818,24.328,24.328,4.818,48.5,4.038z M4.038,51.5H48.5v44.462   C24.328,95.182,4.818,75.672,4.038,51.5z M51.5,95.962V51.5h44.462C95.182,75.672,75.672,95.182,51.5,95.962z"/></g></svg>